<svg width="24" height="24" viewBox="0 0 24 24" fill="none" xmlns="http://www.w3.org/2000/svg">
<path fill-rule="evenodd" clip-rule="evenodd" d="M22.67 0H1.33C0.597728 0.00544462 0.00544462 0.597728 0 1.33V22.67C0.00544462 23.4023 0.597728 23.9946 1.33 24H12.82V14.72H9.7V11.09H12.82V8.42C12.82 5.32 14.71 3.63 17.49 3.63C18.42 3.63 19.35 3.63 20.28 3.77V7H18.37C16.86 7 16.57 7.72 16.57 8.77V11.08H20.17L19.7 14.71H16.57V24H22.67C23.4023 23.9946 23.9946 23.4023 24 22.67V1.33C23.9946 0.597728 23.4023 0.00544462 22.67 0Z" fill="#00B242"/>
</svg>
