<svg width="24" height="24" viewBox="0 0 24 24" fill="none" xmlns="http://www.w3.org/2000/svg">
<path fill-rule="evenodd" clip-rule="evenodd" d="M1.78 0C0.796933 0 0 0.796934 0 1.78V22.22C0 23.2031 0.796934 24 1.78 24H22.22C23.2031 24 24 23.2031 24 22.22V1.78C24 0.796933 23.2031 0 22.22 0H1.78ZM4.50015 7.83326C4.50015 5.99231 5.99253 4.49993 7.83348 4.49993H16.1668C18.0078 4.49993 19.5001 5.99231 19.5001 7.83326V16.1666C19.5001 18.0075 18.0078 19.4999 16.1668 19.4999H7.83348C5.99253 19.4999 4.50015 18.0075 4.50015 16.1666V7.83326ZM7.83348 2.83326C5.07206 2.83326 2.83348 5.07184 2.83348 7.83326V16.1666C2.83348 18.928 5.07206 21.1666 7.83348 21.1666H16.1668C18.9282 21.1666 21.1668 18.928 21.1668 16.1666V7.83326C21.1668 5.07184 18.9282 2.83326 16.1668 2.83326H7.83348ZM12.4028 9.49102C11.8827 9.41388 11.3514 9.50273 10.8847 9.74492C10.4179 9.9871 10.0394 10.3703 9.80302 10.84C9.56661 11.3097 9.48432 11.842 9.56786 12.3611C9.6514 12.8803 9.89651 13.3599 10.2683 13.7317C10.6402 14.1036 11.1198 14.3487 11.6389 14.4322C12.1581 14.5158 12.6904 14.4335 13.1601 14.1971C13.6298 13.9606 14.013 13.5821 14.2552 13.1154C14.4974 12.6487 14.5862 12.1174 14.5091 11.5973C14.4304 11.0667 14.1832 10.5755 13.8039 10.1962C13.4246 9.81693 12.9334 9.56969 12.4028 9.49102ZM10.1171 8.26554C10.895 7.8619 11.7804 7.71382 12.6473 7.84238C13.5316 7.97351 14.3503 8.38557 14.9824 9.0177C15.6145 9.64982 16.0266 10.4685 16.1577 11.3528C16.2863 12.2197 16.1382 13.1051 15.7345 13.883C15.3309 14.6609 14.6922 15.2918 13.9094 15.6858C13.1266 16.0798 12.2394 16.217 11.3741 16.0777C10.5089 15.9385 9.70954 15.53 9.08983 14.9103C8.47012 14.2905 8.06159 13.4912 7.92236 12.6259C7.78312 11.7607 7.92027 10.8735 8.31429 10.0907C8.70832 9.30785 9.33915 8.66919 10.1171 8.26554ZM16.5832 6.58326C16.1229 6.58326 15.7499 6.95636 15.7499 7.41659C15.7499 7.87683 16.1229 8.24993 16.5832 8.24993H16.5932C17.0534 8.24993 17.4265 7.87683 17.4265 7.41659C17.4265 6.95636 17.0534 6.58326 16.5932 6.58326H16.5832Z" fill="#00B242"/>
</svg>
