<svg width="24" height="24" viewBox="0 0 24 24" fill="none" xmlns="http://www.w3.org/2000/svg">
<path fill-rule="evenodd" clip-rule="evenodd" d="M22.21 3.28224e-05H1.79C0.822253 -0.00578544 0.0271669 0.76265 0 1.73003V22.2C0.0218553 23.1698 0.820102 23.9412 1.79 23.93H22.21C23.1799 23.9412 23.9781 23.1698 24 22.2V1.73003C23.9728 0.76265 23.1777 -0.00578544 22.21 3.28224e-05ZM7.11 20.41H3.59V9.00003H7.11V20.41ZM5.39 7.41003C4.26602 7.41036 3.34715 6.51369 3.32 5.39003C3.30022 4.83521 3.51195 4.29712 3.90452 3.90455C4.29709 3.51198 4.83517 3.30025 5.39 3.32003C6.4748 3.39557 7.31621 4.29761 7.31621 5.38503C7.31621 6.47246 6.4748 7.3745 5.39 7.45003V7.41003ZM20.48 20.34H17V14.76C17 13.43 17 11.7 15.14 11.7C13.28 11.7 13 13.16 13 14.63V20.28H9.44V9.00003H12.76V10.5H12.83C13.5237 9.29531 14.8312 8.57791 16.22 8.64003C19.81 8.64003 20.48 11.04 20.48 14.09V20.34Z" fill="#00B242"/>
</svg>
